<svg width="24" height="24" viewBox="0 0 24 24" fill="none" xmlns="http://www.w3.org/2000/svg">
<path d="M22 3.66658V8.66658C22 8.88759 21.9122 9.09955 21.7559 9.25584C21.5996 9.41212 21.3877 9.49991 21.1667 9.49991H16.1667C15.9457 9.49991 15.7337 9.41212 15.5774 9.25584C15.4211 9.09955 15.3333 8.88759 15.3333 8.66658C15.3333 8.44557 15.4211 8.2336 15.5774 8.07732C15.7337 7.92104 15.9457 7.83325 16.1667 7.83325H19.1552L17.6313 6.30929C16.0825 4.75346 13.9797 3.8757 11.7844 3.86866H11.7375C9.5606 3.86356 7.46918 4.71562 5.91562 6.24054C5.75648 6.3891 5.54551 6.46949 5.32786 6.46449C5.1102 6.4595 4.90315 6.36953 4.75098 6.21382C4.59881 6.05812 4.51362 5.84905 4.51364 5.63134C4.51365 5.41362 4.59886 5.20456 4.75104 5.04887C6.63389 3.20866 9.16647 2.1852 11.7992 2.20061C14.4319 2.21602 16.9524 3.26904 18.8135 5.13116L20.3333 6.65512V3.66658C20.3333 3.44557 20.4211 3.23361 20.5774 3.07732C20.7337 2.92104 20.9457 2.83325 21.1667 2.83325C21.3877 2.83325 21.5996 2.92104 21.7559 3.07732C21.9122 3.23361 22 3.44557 22 3.66658ZM18.0844 17.7593C16.5155 19.2918 14.4056 20.1441 12.2124 20.1312C10.0193 20.1183 7.91958 19.2414 6.36875 17.6905L4.84479 16.1666H7.83333C8.05435 16.1666 8.26631 16.0788 8.42259 15.9225C8.57887 15.7662 8.66667 15.5543 8.66667 15.3332C8.66667 15.1122 8.57887 14.9003 8.42259 14.744C8.26631 14.5877 8.05435 14.4999 7.83333 14.4999H2.83333C2.61232 14.4999 2.40036 14.5877 2.24408 14.744C2.0878 14.9003 2 15.1122 2 15.3332V20.3332C2 20.5543 2.0878 20.7662 2.24408 20.9225C2.40036 21.0788 2.61232 21.1666 2.83333 21.1666C3.05435 21.1666 3.26631 21.0788 3.42259 20.9225C3.57887 20.7662 3.66667 20.5543 3.66667 20.3332V17.3447L5.19063 18.8687C7.04918 20.7366 9.57333 21.7901 12.2083 21.7978H12.2635C14.8761 21.8046 17.3862 20.7817 19.25 18.951C19.4022 18.7953 19.4874 18.5862 19.4874 18.3685C19.4874 18.1508 19.4022 17.9417 19.2501 17.786C19.0979 17.6303 18.8908 17.5403 18.6732 17.5353C18.4555 17.5303 18.2446 17.6107 18.0854 17.7593H18.0844Z" fill="white"/>
</svg>
