<svg width="24" height="24" viewBox="0 0 24 24" fill="none" xmlns="http://www.w3.org/2000/svg">
<path d="M12 22V12M12 6.44444H7.5C4.42222 6.44444 4.23333 2 7.5 2C11 2 12 6.44444 12 6.44444ZM12 6.44444H16.5C19.7178 6.44444 19.7178 2 16.5 2C13 2 12 6.44444 12 6.44444Z" stroke="black" stroke-width="1.66667" stroke-linecap="round" stroke-linejoin="round"/>
<path d="M20.8889 11.9999V19.7777C20.8889 20.367 20.6548 20.9323 20.238 21.349C19.8213 21.7658 19.256 21.9999 18.6667 21.9999H5.33333C4.74396 21.9999 4.17873 21.7658 3.76198 21.349C3.34524 20.9323 3.11111 20.367 3.11111 19.7777V11.9999M22 11.9999V8.66656C22 8.07719 21.7659 7.51196 21.3491 7.09521C20.9324 6.67846 20.3671 6.44434 19.7778 6.44434H4.22222C3.63285 6.44434 3.06762 6.67846 2.65087 7.09521C2.23413 7.51196 2 8.07719 2 8.66656V11.9999H22Z" stroke="black" stroke-width="1.66667" stroke-linecap="round" stroke-linejoin="round"/>
</svg>
