<svg width="24" height="24" viewBox="0 0 24 24" fill="none" xmlns="http://www.w3.org/2000/svg">
<path d="M17.0453 0H13.617C10.1886 0 6.70021 2.57128 6.70021 8.24525C6.62853 9.5604 6.92204 10.8698 7.54829 12.0285C8.17453 13.1872 9.10909 14.15 10.2486 14.8106L6.00596 22.3959C5.90871 22.5608 5.85742 22.7487 5.85742 22.9401C5.85742 23.1316 5.90871 23.3195 6.00596 23.4844C6.09393 23.6354 6.21862 23.7617 6.36846 23.8516C6.51831 23.9415 6.68843 23.9921 6.86305 23.9986H8.99722C9.21376 24.0092 9.42834 23.9533 9.61218 23.8384C9.79602 23.7235 9.94032 23.5551 10.0257 23.3558L13.9598 15.642H14.2512V23.0301C14.2522 23.1622 14.2799 23.2926 14.3327 23.4137C14.3855 23.5347 14.4623 23.6437 14.5584 23.7343C14.6545 23.8248 14.768 23.8949 14.892 23.9403C15.016 23.9858 15.1479 24.0056 15.2797 23.9986H17.1482C17.4 24.008 17.6454 23.918 17.8314 23.748C18.0174 23.578 18.1291 23.3417 18.1424 23.0901V1.04566C18.1458 0.911704 18.1228 0.778391 18.0747 0.653335C18.0266 0.528279 17.9543 0.41393 17.862 0.316823C17.7696 0.219717 17.6591 0.141755 17.5366 0.087393C17.4141 0.033031 17.2821 0.00333439 17.1482 0H17.0453ZM14.3198 12.2393H13.8141C11.8428 12.2393 10.6771 10.6365 10.6771 7.95384C10.6771 4.61117 12.1599 3.41981 13.5398 3.41981H14.3455L14.3198 12.2393Z" fill="#FC3F1D"/>
</svg>
