<svg width="244" height="271" viewBox="0 0 244 271" fill="none" xmlns="http://www.w3.org/2000/svg">
<path d="M42.4673 0H205.125C226.589 0 243.988 17.3998 243.988 38.8635V156.511C243.988 177.974 226.589 195.374 205.125 195.374H42.4673V0Z" fill="#FAD515"/>
<path d="M0 6.87089C0 3.07621 3.07618 0 6.87089 0H84.3225C88.7407 0 92.3224 3.58172 92.3224 8V257.864C92.3224 264.979 86.5548 270.747 79.4395 270.747H8.00001C3.58173 270.747 0 267.165 0 262.747V136.712C0 134.306 1.0832 132.027 2.94939 130.508L35.1539 104.291C39.0711 101.102 39.0891 95.1257 35.1911 91.9133L2.91217 65.3116C1.06815 63.7919 0 61.5275 0 59.1379V6.87089Z" fill="#FAD515"/>
<path d="M28.8428 133.338C28.5666 133.338 28.3414 133.562 28.3553 133.838C28.6176 139.041 32.9496 143.215 38.2552 143.215H70.6593H99.522C99.9464 143.215 100.178 142.72 99.9055 142.394L92.4778 133.517C92.3828 133.404 92.2424 133.338 92.0944 133.338H28.8428Z" fill="#082A5A"/>
<path d="M18.9658 167.478C18.6897 167.478 18.4637 167.703 18.4864 167.978C18.9347 173.417 26.6606 177.784 36.1258 177.784H93.8575H151.089C151.365 177.784 151.589 177.561 151.589 177.284V167.978C151.589 167.702 151.365 167.478 151.089 167.478H18.9658Z" fill="#082A5A"/>
<path d="M18.9658 24.4776C18.6897 24.4776 18.4637 24.2531 18.486 23.9779C18.9256 18.5388 26.502 14.1713 35.784 14.1713H92.3983H148.513C148.789 14.1713 149.013 14.3951 149.013 14.6713V23.9776C149.013 24.2537 148.789 24.4776 148.513 24.4776H18.9658Z" fill="#082A5A"/>
<path d="M28.8696 58.9403C28.5935 58.9403 28.3683 58.7163 28.3821 58.4405C28.6424 53.2157 32.9593 49.0231 38.2465 49.0231H70.5348H99.2346C99.658 49.0231 99.8897 49.5165 99.6194 49.8423L92.2211 58.7596C92.1261 58.8741 91.9851 58.9403 91.8363 58.9403H28.8696Z" fill="#082A5A"/>
<path d="M151.375 172.631C192.167 172.631 224.592 136.606 224.592 95.8705C224.592 55.1347 189.806 19.3245 149.013 19.3245" stroke="#082A5A" stroke-width="10.3063"/>
<path d="M148 32C135.342 32 122.968 35.7535 112.444 42.7859C101.919 49.8184 93.7157 59.8138 88.8717 71.5083C84.0277 83.2027 82.7603 96.071 85.2298 108.486C87.6992 120.901 93.7946 132.304 102.745 141.255C111.696 150.205 123.099 156.301 135.514 158.77C147.929 161.24 160.797 159.972 172.492 155.128C184.186 150.284 194.182 142.081 201.214 131.556C208.246 121.032 212 108.658 212 96C211.982 79.0316 205.233 62.7634 193.235 50.765C181.237 38.7665 164.968 32.0179 148 32ZM195.089 122.72H174.4L168.702 114.868L176.474 92.2338L185.705 89.2246L201.852 101.612C201.088 109.041 198.785 116.23 195.089 122.72ZM94.1662 101.612L110.283 89.2308L119.514 92.24L127.286 114.874L121.6 122.72H100.911C97.2111 116.231 94.9036 109.042 94.1354 101.612H94.1662ZM100.32 70.4492L103.711 81.8954L94.2831 89.0892C95.1185 82.562 97.146 76.2438 100.265 70.4492H100.32ZM136.308 110.769L129.255 90.2461L148 77.36L166.745 90.2461L159.692 110.769H136.308ZM192.351 81.8954L195.742 70.4492C198.86 76.2438 200.888 82.562 201.723 89.0892L192.351 81.8954ZM188.535 60.1231L182.683 79.8646L173.409 82.8738L152.923 68.7938V59.2061L170.825 46.8985C177.567 50.0519 183.592 54.5526 188.529 60.1231H188.535ZM159.12 42.9969L148 50.64L136.88 42.9969C144.214 41.4618 151.786 41.4618 159.12 42.9969ZM125.175 46.8985L143.077 59.2061V68.7938L122.597 82.8738L113.323 79.8646L107.471 60.1231C112.408 54.5526 118.433 50.0519 125.175 46.8985ZM108.092 132.566H120.628L125.04 145.04C118.633 142.025 112.876 137.788 108.092 132.566ZM136.923 149.003L129.612 128.437L135.292 120.615H160.708L166.388 128.437L159.108 149.003C151.782 150.538 144.218 150.538 136.892 149.003H136.923ZM170.991 145.04L175.403 132.566H187.938C183.146 137.791 177.378 142.028 170.96 145.04H170.991Z" fill="#082A5A" stroke="#082A5A" stroke-width="0.5"/>
</svg>
