<svg width="512" height="512" viewBox="0 0 512 512" fill="none" xmlns="http://www.w3.org/2000/svg">
<path d="M112.584 36H405.916C444.623 36 476 64.277 476 99.1584V290.351C476 325.232 444.623 353.509 405.916 353.509H112.584V36Z" fill="#FAD515"/>
<path d="M36 47.1661C36 40.9993 41.5475 36 48.3907 36H188.064C196.032 36 202.491 41.8208 202.491 49.0011V455.063C202.491 466.626 192.09 476 179.258 476H50.4269C42.4592 476 36 470.179 36 462.999V258.175C36 254.265 37.9534 250.561 41.3188 248.093L99.3953 205.487C106.459 200.304 106.492 190.592 99.4624 185.371L41.2517 142.14C37.9263 139.67 36 135.99 36 132.107V47.1661Z" fill="#FAD515"/>
<path d="M88.0145 252.692C87.5164 252.692 87.1103 253.056 87.1354 253.504C87.6084 261.96 95.4206 268.743 104.989 268.743H163.425H215.475C216.24 268.743 216.658 267.939 216.167 267.409L202.772 252.983C202.6 252.799 202.347 252.692 202.08 252.692H88.0145Z" fill="#082A5A"/>
<path d="M70.3835 308.247C69.8862 308.247 69.479 308.603 69.5199 309.039C70.3275 317.665 84.2451 324.59 101.296 324.59H205.295H308.394C308.891 324.59 309.294 324.236 309.294 323.797V309.039C309.294 308.602 308.891 308.247 308.394 308.247H70.3835Z" fill="#082A5A"/>
<path d="M70.3854 75.9982C69.8873 75.9982 69.4796 75.6422 69.5198 75.2058C70.3129 66.5806 83.9811 59.6548 100.726 59.6548H202.861H304.095C304.593 59.6548 304.997 60.0097 304.997 60.4477V75.2053C304.997 75.6431 304.593 75.9982 304.095 75.9982H70.3854Z" fill="#082A5A"/>
<path d="M88.0624 131.786C87.5644 131.786 87.1583 131.422 87.1832 130.973C87.6526 122.482 95.4376 115.669 104.972 115.669H163.2H214.956C215.72 115.669 216.138 116.471 215.65 117L202.308 131.492C202.137 131.678 201.883 131.786 201.614 131.786H88.0624Z" fill="#082A5A"/>
<path d="M306.297 316.391C380.513 316.391 439.507 257.976 439.507 191.922C439.507 125.867 376.218 67.7998 302 67.7998" stroke="#082A5A" stroke-width="16.3"/>
<path d="M302.898 88.0044C280.071 88.0044 257.756 94.1043 238.778 105.533C219.797 116.962 205.004 133.206 196.268 152.211C187.533 171.216 185.247 192.128 189.701 212.304C194.154 232.48 205.146 251.012 221.287 265.558C237.429 280.103 257.993 290.01 280.382 294.023C302.77 298.037 325.976 295.976 347.066 288.104C368.155 280.232 386.181 266.901 398.863 249.796C411.544 232.693 418.314 212.584 418.314 192.013C418.281 164.437 406.11 137.999 384.474 118.5C362.837 99.0009 333.498 88.0335 302.898 88.0044ZM387.817 235.436H350.507L340.232 222.676L354.247 185.892L370.894 181.002L400.013 201.133C398.635 213.206 394.482 224.889 387.817 235.436ZM205.816 201.133L234.881 181.012L251.528 185.902L265.543 222.686L255.289 235.436H217.98C211.307 224.891 207.146 213.208 205.761 201.133H205.816ZM216.914 150.489L223.029 169.091L206.027 180.782C207.534 170.174 211.19 159.906 216.815 150.489H216.914ZM281.813 216.015L269.094 182.662L302.898 161.72L336.702 182.662L323.983 216.015H281.813ZM382.879 169.091L388.995 150.489C394.618 159.906 398.275 170.174 399.781 180.782L382.879 169.091ZM375.998 133.708L365.444 165.791L348.72 170.681L311.776 147.799V132.218L344.06 112.216C356.218 117.341 367.084 124.655 375.987 133.708H375.998ZM322.952 105.876L302.898 118.297L282.845 105.876C296.071 103.381 309.726 103.381 322.952 105.876ZM261.737 112.216L294.02 132.218V147.799L257.087 170.681L240.363 165.791L229.81 133.708C238.713 124.655 249.578 117.341 261.737 112.216ZM230.93 251.438H253.537L261.493 271.709C249.939 266.81 239.557 259.924 230.93 251.438ZM282.922 278.15L269.738 244.727L279.981 232.016H325.815L336.059 244.727L322.93 278.15C309.719 280.644 296.078 280.644 282.867 278.15H282.922ZM344.36 271.709L352.316 251.438H374.921C366.279 259.929 355.878 266.815 344.304 271.709H344.36Z" fill="#082A5A" stroke="#082A5A" stroke-width="0.44"/>
</svg>
